PathFileType	4	(X/Y/Z)	D:\TRACE\spot_10-12-23\spot_body_baseline_4-platform.trc
DataRate	CameraRate	NumFrames	NumMarkers	Units	OrigDataRate	OrigDataStartFrame	OrigNumFrames
100.00	100.00	      37	5	mm	100.00	876	      7000
Frame#	Time	Left_Front			Right_Front			Left_Aft			Right_Aft			Post			
		X1	Y1	Z1	X2	Y2	Z2	X3	Y3	Z3	X4	Y4	Z4	X5	Y5	Z5	

876	8.750	-780.61255	6.34624	-641.49298	791.65216	11.05875	-634.83362	-697.78241	5.58149	496.36520	719.51959	10.05789	582.47943	1.74037	743.99054	-959.45160	
877	8.760	-780.59137	6.32580	-641.48669	791.66614	11.07923	-634.90497	-697.79016	5.57587	496.35007	719.53217	10.06395	582.48792	1.79647	743.97723	-959.49011	
878	8.770	-780.66559	6.37085	-641.49835	791.64258	11.07652	-634.85974	-697.77380	5.56245	496.35312	719.53723	10.06367	582.49847	1.79367	743.96637	-959.44653	
879	8.780	-780.59479	6.31314	-641.53040	791.65717	11.05947	-634.88025	-697.77209	5.57268	496.35605	719.52960	10.06210	582.48090	1.78160	743.96808	-959.49762	
880	8.790	-780.66803	6.37793	-641.47302	791.61371	11.05130	-634.92816	-697.79651	5.61077	496.33701	719.54926	10.09353	582.48956	1.79966	743.96436	-959.45099	
881	8.800	-780.55811	6.27633	-641.52600	791.65594	11.05717	-634.85077	-697.76727	5.59019	496.31854	719.54688	10.10332	582.49182	1.76527	743.96887	-959.43890	
882	8.810	-780.56262	6.29371	-641.52661	791.67523	11.01391	-634.86658	-697.76050	5.63954	496.34796	719.52673	10.10168	582.46271	1.83623	743.94598	-959.39417	
883	8.820	-780.60791	6.30937	-641.50500	791.61334	11.03151	-634.88428	-697.74469	5.62748	496.32669	719.49646	10.10490	582.50433	1.75054	743.96167	-959.42438	
884	8.830	-780.58112	6.29464	-641.51221	791.64746	11.01197	-634.88788	-697.77380	5.56981	496.39120	719.53125	10.09237	582.49670	1.76762	743.98175	-959.41309	
885	8.840	-780.56897	6.27931	-641.50146	791.64862	11.09477	-634.88690	-697.80084	5.60937	496.32419	719.52997	10.06742	582.48975	1.73808	743.99677	-959.41772	
886	8.850	-780.62933	6.35289	-641.48383	791.64325	11.04750	-634.91895	-697.79626	5.61740	496.31628	719.50427	10.06202	582.45459	1.70442	744.05603	-959.46161	
887	8.860	-780.57617	6.33905	-641.48181	791.63544	11.09664	-634.87659	-697.77612	5.59964	496.32407	719.50537	10.07553	582.48016	1.74623	744.03162	-959.43091	
888	8.870	-780.58472	6.29551	-641.48505	791.72028	11.01765	-634.87408	-697.75458	5.60827	496.35593	719.53271	10.07604	582.48376	1.77724	744.04053	-959.39240	
889	8.880	-780.64746	6.34419	-641.46948	791.60101	11.05553	-634.87103	-697.76727	5.60342	496.31094	719.51910	10.10445	582.49896	1.79009	744.02954	-959.40765	
890	8.890	-780.58453	6.30394	-641.49280	791.68262	11.06580	-634.84222	-697.76880	5.60483	496.31699	719.54230	10.08823	582.47174	1.77711	744.00476	-959.38989	
891	8.900	-780.59747	6.28907	-641.50226	791.49207	11.05471	-635.02563	-697.78955	5.60231	496.32944	719.54395	10.10755	582.44659	1.78649	744.00250	-959.40790	
892	8.910	-780.55865	6.31125	-641.50214	791.62128	11.03473	-634.88647	-697.80737	5.62648	496.34204	719.50708	10.09839	582.46906	1.80735	743.93848	-959.37354	
893	8.920	-780.58789	6.30445	-641.47754	791.64056	11.02697	-634.90271	-697.74884	5.60198	496.33694	719.52264	10.09324	582.46252	1.79027	743.93848	-959.43005	
894	8.930	-780.57709	6.27360	-641.49341	791.59503	11.09520	-634.88843	-697.78412	5.56942	496.32581	719.48322	10.05804	582.45538	1.74675	743.96118	-959.43665	
895	8.940	-780.60870	6.32483	-641.53351	791.57965	11.08063	-634.90662	-697.73834	5.59188	496.34073	719.49268	10.08694	582.47736	1.81594	743.92914	-959.45502	
896	8.950	-780.59888	6.33416	-641.52747	791.62170	11.04156	-634.90936	-697.72943	5.55859	496.31964	719.50867	10.07664	582.48352	1.76828	743.95264	-959.49719	
897	8.960	-780.63538	6.33781	-641.47205	791.65082	11.05155	-634.88458	-697.76074	5.61210	496.33572	719.51031	10.07589	582.47827	1.81129	743.94757	-959.44110	
898	8.970	-780.54211	6.30140	-641.51599	791.59888	11.06416	-634.92584	-697.76685	5.62163	496.33014	719.50232	10.05444	582.45557	1.77218	743.96851	-959.42407	
899	8.980	-780.64209	6.35313	-641.47589	791.65533	11.05847	-634.87396	-697.75439	5.59640	496.33969	719.49512	10.05242	582.47516	2.18307	743.96320	-959.45190	
900	8.990	-780.65393	6.32483	-641.46497	791.57965	11.13050	-634.93567	-697.77472	5.56481	496.30701	719.47198	10.11670	582.44885	2.07211	743.89966	-959.39117	
901	9.000	-780.59186	6.33989	-641.52911	791.65564	11.18397	-634.93134	-697.76306	5.64662	496.28558	719.52173	10.11788	582.45306	1.88775	743.98712	-959.37128	
902	9.010	-780.60327	6.31827	-641.52032	791.61127	10.98556	-634.92871	-697.67365	5.42387	496.56165	719.52502	10.07450	582.50220	1.84845	744.05072	-959.34973	
903	9.020	-780.63141	6.26858	-641.46033	791.67474	10.90769	-634.87170	-697.67499	5.37808	496.51907	719.53992	10.11417	582.49060	1.84129	744.05945	-959.38672	
904	9.030	-780.65601	6.33834	-641.46350	791.64044	11.15049	-634.87262	-697.76416	5.45820	496.47604	719.50195	10.01640	582.47363	1.80997	744.00494	-959.40942	
905	9.040	-780.57355	6.28556	-641.51392	791.58630	11.16768	-634.91620	-697.78961	5.50543	496.43924	719.51483	10.00278	582.49432	1.81939	744.05420	-959.36414	
906	9.050	-780.73346	6.47078	-641.43311	791.64105	10.98485	-634.89764	-697.76971	5.56194	496.38187	719.50195	10.09792	582.48053	1.78080	744.02979	-959.40698	
907	9.060	-780.71387	6.39931	-641.45782	791.47858	10.97696	-635.03595	-697.78387	5.56812	496.36786	719.52582	10.07231	582.46149	1.82911	744.01910	-959.38000	
908	9.070	-780.71948	6.39079	-641.48102	791.66138	11.16510	-634.88690	-697.76495	5.58085	496.41241	719.53522	10.06860	582.44434	1.79404	743.96765	-959.39844	
909	9.080	-780.72247	6.40891	-641.46375	791.61731	11.05003	-634.92352	-697.76556	5.57662	496.38940	719.48956	10.10202	582.44202	1.79380	743.92889	-959.35791	
910	9.090	-780.67358	6.38031	-641.49335	791.59399	10.94423	-634.90228	-697.79822	5.57808	496.37970	719.48669	10.11177	582.45526	1.79463	743.91370	-959.43744	
911	9.100	-780.66272	6.38315	-641.51624	791.64313	10.99110	-634.87628	-697.79144	5.55610	496.37262	719.50946	10.05782	582.45905	1.82248	743.93512	-959.43494	
912	9.110	-780.68768	6.36261	-641.46472	791.63525	11.15136	-634.85608	-697.76892	5.58078	496.43103	719.53259	10.11571	582.46863	1.76161	743.99487	-959.45288	
